<svg width="1440" height="768" fill="none" xmlns="http://www.w3.org/2000/svg"><g clip-path="url('#clip0_2923_51892')"><path fill="#F8FAFB" d="M0 0h1440v768H0z"/><path fill-rule="evenodd" clip-rule="evenodd" d="M504.029 843.793c-4.097 0-7.326-1.598-7.007-3.468l26.676-156.473h25.562l-37.656 157.074c-.392 1.632-3.402 2.867-6.988 2.867M1092.97 843.793c4.1 0 7.33-1.598 7.01-3.468l-26.68-156.473h-25.56l37.66 157.074c.39 1.632 3.4 2.867 6.98 2.867" fill="#C6B5B5"/><path fill-rule="evenodd" clip-rule="evenodd" d="M1088.42 683.852H508.579c-2.105 0-4.075-.475-5.266-1.269-2.916-1.941.12-4.583 5.266-4.583h579.841c5.15 0 8.18 2.642 5.27 4.583-1.19.794-3.16 1.269-5.27 1.269Z" fill="#D6C8C8"/><path fill-rule="evenodd" clip-rule="evenodd" d="M1074.15 687.752H522.846l.851-3.9H1073.3l.85 3.9Z" fill="#BAA2A2"/><path d="M1009.99 678h-32.612c-1.998 0-3.683-1.514-3.93-3.531l-7.488-60.975v-16.126h55.45v16.126l-7.49 60.975c-.25 2.017-1.93 3.531-3.93 3.531Z" fill="#F9DCC9"/><path d="M1009.99 678c2 0 3.68-1.514 3.93-3.531l7.49-60.975v-16.126h-55.45v16.126h39.08c1.14 0 2.22.497 2.97 1.364.75.867 1.1 2.02.96 3.168l-6.93 56.443c-.25 2.017-1.93 3.531-3.932 3.531h11.882Z" fill="#F6CBAF"/><path d="M1017.45 597.368v4.032h-47.53v-4.032l2.866-5.835a3.955 3.955 0 0 1 3.543-2.228h34.711c1.5 0 2.87.863 3.54 2.228l2.87 5.835Z" fill="#653430"/><path d="M1014.58 591.533a3.95 3.95 0 0 0-3.54-2.228h-13.396c2.188-.002 3.966 1.804 3.966 4.031 0 2.228-1.778 4.034-3.966 4.032v4.032h19.806v-4.032l-2.87-5.835Z" fill="#3E190C"/><path d="M965.96 597.368h55.45c2.18 0 3.96 1.805 3.96 4.032v8.063c0 2.227-1.78 4.031-3.96 4.031h-55.45c-2.187 0-3.96-1.804-3.96-4.031V601.4c0-2.227 1.773-4.032 3.96-4.032Z" fill="#7C534F"/><path d="M1017.45 657.842h-47.53l-3.96-32.253h55.45l-3.96 32.253Z" fill="#B77B65"/><path d="M1001.6 657.842h15.85l3.96-32.253h-15.85l-3.96 32.253Z" fill="#AA644A"/><path d="M1021.41 597.368h-19.81c2.19 0 3.96 1.805 3.96 4.032v8.063c0 2.227-1.77 4.031-3.96 4.031h19.81c2.18 0 3.96-1.804 3.96-4.031V601.4c0-2.227-1.78-4.032-3.96-4.032Z" fill="#653430"/><path d="M973.881 597.368c2.188 0 3.961 1.805 3.961 4.032v8.063c0 2.227-1.773 4.031-3.961 4.031-2.188 0-3.961-1.804-3.961-4.031V601.4c0-2.227 1.773-4.032 3.961-4.032Z" fill="#93716E"/><g clip-path="url('#clip1_2923_51892')" fill="#C7CCD1"><path d="M993.604 584.63a1.125 1.125 0 0 1-1.115-1.135c0-.3.118-.589.327-.802l.501-.51a2.247 2.247 0 0 0-.334-3.417c-2.026-1.376-2.572-4.163-1.22-6.225.161-.246.346-.475.551-.684l.502-.511a1.102 1.102 0 0 1 1.576-.028 1.15 1.15 0 0 1 .027 1.605l-.027.028-.502.511a2.248 2.248 0 0 0 .001 3.138c.102.104.214.197.334.278 2.025 1.376 2.572 4.164 1.22 6.226a4.526 4.526 0 0 1-.551.683l-.502.511a1.104 1.104 0 0 1-.788.332ZM1000.29 584.63a1.124 1.124 0 0 1-1.112-1.135c0-.3.117-.589.326-.802l.506-.51c.85-.867.85-2.273-.01-3.139a1.914 1.914 0 0 0-.329-.278c-2.025-1.376-2.572-4.163-1.22-6.225.161-.246.346-.475.551-.684l.502-.511a1.1 1.1 0 0 1 1.576-.027 1.15 1.15 0 0 1 0 1.632l-.5.51a2.246 2.246 0 0 0 .33 3.417c2.03 1.376 2.57 4.164 1.22 6.226-.16.245-.34.474-.55.683l-.5.511c-.21.213-.49.332-.79.332ZM986.916 584.63a1.125 1.125 0 0 1-1.115-1.135c0-.3.118-.589.327-.802l.501-.51a2.247 2.247 0 0 0-.334-3.417c-2.026-1.376-2.572-4.163-1.22-6.225.161-.246.346-.475.551-.684l.502-.511a1.102 1.102 0 0 1 1.576-.028 1.15 1.15 0 0 1 .027 1.605l-.027.028-.502.511a2.248 2.248 0 0 0 .001 3.138c.102.104.214.197.334.278 2.025 1.376 2.572 4.164 1.22 6.226a4.526 4.526 0 0 1-.551.683l-.502.511a1.102 1.102 0 0 1-.788.332Z"/></g><path d="M992.76 616.95h1.29V624h-1.29v-7.05ZM980.96 672.09c-.693 0-1.3-.147-1.82-.44-.513-.3-.91-.723-1.19-1.27-.273-.547-.41-1.183-.41-1.91 0-.727.137-1.36.41-1.9.28-.547.677-.967 1.19-1.26.52-.3 1.127-.45 1.82-.45.473 0 .92.073 1.34.22.42.147.773.353 1.06.62l-.43.94a3.427 3.427 0 0 0-.95-.55 2.772 2.772 0 0 0-1-.18c-.68 0-1.207.22-1.58.66-.367.44-.55 1.073-.55 1.9 0 .833.183 1.47.55 1.91.373.44.9.66 1.58.66.353 0 .687-.057 1-.17.313-.12.63-.307.95-.56l.43.94c-.287.267-.64.473-1.06.62-.42.147-.867.22-1.34.22Zm5.6-.01c-.5 0-.94-.103-1.32-.31a2.145 2.145 0 0 1-.87-.89c-.207-.387-.31-.837-.31-1.35 0-.513.103-.96.31-1.34.206-.387.496-.683.87-.89.38-.207.82-.31 1.32-.31.5 0 .936.103 1.31.31.38.207.67.503.87.89.206.38.31.827.31 1.34 0 .513-.104.963-.31 1.35-.2.387-.49.683-.87.89-.374.207-.81.31-1.31.31Zm-.01-.97c.406 0 .716-.133.93-.4.213-.267.32-.66.32-1.18 0-.513-.107-.903-.32-1.17-.214-.273-.52-.41-.92-.41s-.71.137-.93.41c-.214.267-.32.657-.32 1.17 0 .52.106.913.32 1.18.213.267.52.4.92.4Zm8.252-6.16V672h-1.24v-.79a1.56 1.56 0 0 1-.64.64c-.274.153-.587.23-.94.23-.42 0-.797-.107-1.13-.32a2.163 2.163 0 0 1-.77-.9 3.209 3.209 0 0 1-.27-1.35c0-.507.09-.95.27-1.33.186-.38.443-.673.77-.88.326-.207.703-.31 1.13-.31.353 0 .666.073.94.22.273.147.483.353.63.62v-2.88h1.25Zm-2.49 6.16c.4 0 .706-.137.92-.41.22-.273.33-.663.33-1.17 0-.507-.11-.893-.33-1.16-.214-.273-.517-.41-.91-.41-.4 0-.71.133-.93.4-.22.267-.33.65-.33 1.15 0 .507.11.9.33 1.18.22.28.526.42.92.42Zm3.776-4h1.25V672h-1.25v-4.89Zm1.31-2.27v1.23h-1.38v-1.23h1.38Zm4.072 2.15c.58 0 1.02.167 1.31.5.28.333.43.837.43 1.51v3h-1.25v-2.93c0-.38-.08-.657-.22-.83-.14-.173-.37-.26-.67-.26-.36 0-.65.113-.87.34-.217.227-.323.53-.323.91V672h-1.25v-4.89h1.22v.73a1.68 1.68 0 0 1 .673-.63c.28-.147.59-.22.95-.22Zm7.77.12v4.44c0 .767-.22 1.347-.64 1.74-.42.393-1.05.59-1.87.59-.43 0-.84-.057-1.23-.17-.4-.107-.74-.26-1.03-.46l.35-.88c.6.367 1.23.55 1.88.55.86 0 1.3-.427 1.3-1.28V671c-.15.273-.36.487-.64.64-.28.147-.6.22-.96.22-.43 0-.81-.1-1.14-.3a2.074 2.074 0 0 1-.77-.86c-.19-.367-.28-.79-.28-1.27s.09-.903.27-1.27c.18-.373.44-.66.78-.86a2.1 2.1 0 0 1 1.14-.31c.36 0 .68.077.96.23.28.147.49.357.64.63v-.74h1.24Zm-2.51 3.78c.4 0 .71-.13.93-.39.22-.26.34-.617.34-1.07 0-.46-.12-.82-.34-1.08-.22-.26-.53-.39-.93-.39s-.71.13-.93.39c-.23.26-.34.62-.34 1.08 0 .447.11.803.34 1.07.22.26.53.39.93.39Z" fill="#3E190C"/><path d="M1004.45 635.878a6.534 6.534 0 0 0-7.813-2.025c-1.199.518-2.269 1.39-3.137 2.549-.868-1.161-1.938-2.034-3.137-2.549a6.522 6.522 0 0 0-7.81 2.025c-.935 1.224-1.429 2.755-1.429 4.425 0 2.404 1.434 5.041 4.261 7.841 2.303 2.281 5.025 4.149 6.442 5.06a3.11 3.11 0 0 0 3.346 0c1.416-.911 4.139-2.779 6.447-5.06 2.82-2.799 4.26-5.437 4.26-7.841 0-1.67-.5-3.201-1.43-4.425Z" fill="#F7D9CE"/><path d="M438.326 738.263s39.446-47.963 29.34-56.88c-10.107-8.918-39.831 34.48-42.209 55.288-2.378 20.807 12.869 1.592 12.869 1.592Z" fill="#7AC143"/><path d="M389.192 742.021c-2.378-2.378-61.233-85.013-46.965-102.848 14.268-17.834 62.659 89.096 60.757 97.756-1.902 8.659-13.792 5.092-13.792 5.092Z" fill="#5E9926"/><path d="M412.378 740.238s2.378-105.226 26.157-114.143c23.78-8.917 5.87 37.922 0 63.865-5.869 25.943-16.051 60.006-16.051 60.006l-10.106-9.728Z" fill="#4F871F"/><path d="M371.951 652.251c8.275 19.141 17.74 48.156 29.539 92.118.497 1.837.993 3.702 1.495 5.595h19.497c-1.321-40.593-2.469-50.148-2.469-50.148-1.265-10.543-3.735-25.153-8.823-41.619-5.792-18.734-15.135-48.971-28.143-49.196-3.238-.056-6.228 1.757-8.683 4.171-2.39 2.342-4.273 5.262-5.384 7.572-5.754 11.967.492 25.776 2.971 31.507Z" fill="#7AC143"/><path d="M371.951 652.251c8.275 19.142 17.74 48.156 29.539 92.118 1.715 1.804 3.543 3.716 5.351 5.595 6.457 6.715 12.671 13.073 12.671 13.073l-4.297-13.073-2.662-8.097c-.159.009-27.482-106.063-38.189-128.695-2.39 2.343-4.273 5.262-5.384 7.572-5.754 11.968.492 25.777 2.971 31.507Z" fill="#67AF32"/><path d="M382.611 778.285c1.148 1.19 48.198 7.136 54.14 0 .332-.398.67-.895 1.007-1.481 5.67-9.859 11.593-44.29 9.508-43.475-20.407 7.957-69.964-.82-75.746 0-.544.075-.9.525-1.087 1.279-1.87 7.245 11.138 42.599 12.178 43.677Z" fill="#E2EEF9"/><path d="M407.631 744.776c17.32 0 32.542-2.167 32.789-2.203a.702.702 0 0 0-.202-1.391c-.397.058-39.961 5.687-63.907-1.321a.702.702 0 1 0-.395 1.349c9.308 2.724 20.919 3.566 31.715 3.566Z" fill="#D3E3EF"/><path d="M382.611 778.285c1.148 1.19 48.198 7.136 54.14 0 .332-.399.67-.895 1.007-1.481-13.809 3.214-46.089 6.874-59.861-25.57-2.886-6.804-5.356-12.263-7.464-16.626-1.87 7.245 11.138 42.599 12.178 43.677Z" fill="#D3E3EF"/><path d="m517.75 582.993 8.471-.993 7.352 62.713-8.472.993-7.351-62.713Z" fill="#F7A771"/><path d="m517.745 582.993 8.471-.993.748 6.379-8.472.993-.747-6.379Z" fill="#4B9E57"/><path d="m541.026 593.868 8.48.922-6.826 62.773-8.48-.922 6.826-62.773Z" fill="#E68080"/><path d="m541.026 593.868 8.48.922-.695 6.386-8.479-.923.694-6.385Z" fill="#396196"/><path d="M554.672 678h-34.123L515 625.693h45.222L554.672 678Z" fill="#8568D5"/><path d="m515 625.693.102.961h34.453L544.108 678h10.564l5.55-52.307H515Z" fill="#8568D4"/><path d="M606.059 623.508c-6.466 0-11.726-5.261-11.726-11.726 0-6.466 5.261-11.725 11.726-11.725h66.281v23.451h-66.281Z" fill="#CECECE"/><path d="M676.179 627.565h-70.12c-8.717 0-15.782-7.066-15.782-15.782 0-8.717 7.066-15.782 15.782-15.782h70.12v31.564Z" fill="#fff"/><path opacity=".24" d="M601.771 608.145h70.569m-70.569 7.161h70.569m-66.281 8.202c-6.466 0-11.726-5.261-11.726-11.726 0-6.466 5.261-11.725 11.726-11.725h66.281v23.451h-66.281Z" stroke="#B1B4BA" stroke-width="4" stroke-miterlimit="10" stroke-linecap="round" stroke-linejoin="round"/><path d="M606.059 623.508c-6.466 0-11.725-5.261-11.725-11.726 0-6.466 5.26-11.725 11.725-11.725h67.416l2.704-4.057h-70.12c-8.717 0-15.782 7.066-15.782 15.782 0 8.716 7.066 15.782 15.782 15.782h70.12l-2.704-4.057-67.416.001Z" fill="#D75757"/><path d="M668.967 653.633H540.571a4.568 4.568 0 0 1-4.571-4.571v-16.926a4.574 4.574 0 0 1 4.571-4.572h128.396a4.572 4.572 0 0 1 4.571 4.572v16.925a4.568 4.568 0 0 1-2.822 4.224 4.567 4.567 0 0 1-1.749.348Z" fill="#394460"/><path d="M705.108 658.867H556.399c.867 2.198 1.373 4.838 1.373 7.679 0 2.842-.506 5.482-1.373 7.68h148.709c-.867-2.198-1.373-4.838-1.373-7.68.001-2.841.506-5.481 1.373-7.679Z" fill="#DFDFDF"/><path d="M552.371 654.78h156.77v4.087h-156.77v-4.087Z" fill="#504DB6"/><path d="M552.371 674.226h156.77v4.086h-156.77v-4.086Z" fill="#F6F9FD"/><path d="M552.371 674.226h156.77v4.086h-156.77v-4.086Z" fill="#504DB6"/><path d="M558.057 663.557h145.679m-145.679 5.419h145.679m1.372-10.109H556.399c.867 2.198 1.373 4.838 1.373 7.679 0 2.842-.506 5.482-1.373 7.68h148.709c-.867-2.198-1.373-4.838-1.373-7.68.001-2.841.506-5.481 1.373-7.679Z" stroke="#ECEDEE" stroke-width="4" stroke-miterlimit="10" stroke-linecap="round" stroke-linejoin="round"/><g clip-path="url('#clip2_2923_51892')"><path d="M558.559 630.437a13.78 13.78 0 0 0-2.298.196c-2.035.359-2.405 1.112-2.405 2.5v1.833h4.809v.61h-6.613c-1.398 0-2.622.841-3.005 2.439-.441 1.831-.461 2.975 0 4.887.342 1.424 1.158 2.438 2.556 2.438h1.654v-2.197c0-1.587 1.373-2.987 3.004-2.987h4.803c1.337 0 2.405-1.101 2.405-2.444v-4.579c0-1.304-1.1-2.283-2.405-2.5-.826-.138-1.683-.2-2.505-.196Zm-2.601 1.474c.497 0 .903.412.903.919a.91.91 0 0 1-.903.914.908.908 0 0 1-.902-.914c0-.507.404-.919.902-.919Z" fill="url('#paint0_linear_2923_51892')"/><path d="M564.069 635.576v2.136c0 1.655-1.404 3.049-3.005 3.049h-4.803c-1.316 0-2.405 1.126-2.405 2.444v4.579c0 1.303 1.134 2.07 2.405 2.444 1.522.447 2.982.528 4.803 0 1.211-.351 2.405-1.056 2.405-2.444v-1.833h-4.804v-.611h7.209c1.397 0 1.918-.975 2.404-2.438.502-1.507.481-2.955 0-4.888-.345-1.391-1.005-2.438-2.404-2.438h-1.805Zm-2.702 11.597c.499 0 .903.408.903.914a.912.912 0 0 1-.903.919.912.912 0 0 1-.902-.919c0-.506.405-.914.902-.914Z" fill="url('#paint1_linear_2923_51892')"/></g><g opacity=".28" filter="url('#filter0_f_2923_51892')"><path d="M632 570.334h16.265v41.287H632v-41.287Z" fill="#1F3969"/></g><g opacity=".28" filter="url('#filter1_f_2923_51892')"><path d="M658.55 611.621H632v13.262c0 8.334 6.756 15.089 15.088 15.089h17.43c.002-.078.011-.153.011-.232V617.6a5.98 5.98 0 0 0-5.979-5.979Z" fill="#1F3969"/></g><path d="m813.047 659.12-2.666-29.761h-43.694l-2.665 29.761c-.62 6.913-4.78 13.536-11.3 18.816l-.008.064h71.641l-.008-.064c-6.521-5.28-10.681-11.903-11.3-18.816Z" fill="#BFCFE2"/><path opacity=".28" d="m768.122 629.632-1.478 17.687h43.334l-1.478-17.687h-40.378Z" fill="#1F3969" stroke="#1F3969" stroke-width="4" stroke-miterlimit="10" stroke-linecap="round" stroke-linejoin="round"/><path d="M928.266 633.782H648.803c-5.861 0-10.612-4.752-10.612-10.613V440.988c0-5.861 4.751-10.613 10.612-10.613h279.463c5.861 0 10.613 4.752 10.613 10.613v182.181c0 5.862-4.752 10.613-10.613 10.613Z" fill="#fff"/><g filter="url('#filter2_i_2923_51892')"><path d="M928.266 633.782H648.803c-5.861 0-10.612-4.752-10.612-10.613V440.988c0-5.861 4.751-10.613 10.612-10.613h279.463c5.861 0 10.613 4.752 10.613 10.613v182.181c0 5.862-4.752 10.613-10.613 10.613Z" fill="url('#paint2_linear_2923_51892')"/></g><path d="M923.844 445.409v154.404H653.225V445.409h270.619Z" fill="#F6F9FD"/><g opacity=".28" filter="url('#filter3_f_2923_51892')"><path d="M663 463v91.706a5.29 5.29 0 0 0 1.554 3.744 5.313 5.313 0 0 0 3.751 1.55h125.39a5.313 5.313 0 0 0 3.751-1.55 5.29 5.29 0 0 0 1.554-3.744V463H663Z" fill="#071323"/></g><path d="M776.643 616.715h23.783" stroke="#1F3969" stroke-width="4" stroke-miterlimit="10" stroke-linecap="round" stroke-linejoin="round"/><g opacity=".28" filter="url('#filter4_f_2923_51892')"><path d="M928.88 582h-88.76a6.098 6.098 0 0 1-4.327-1.804 6.184 6.184 0 0 1-1.793-4.357v-94.678c0-1.634.645-3.201 1.793-4.357A6.098 6.098 0 0 1 840.12 475h88.76c1.623 0 3.18.649 4.327 1.804a6.184 6.184 0 0 1 1.793 4.357v94.678a6.184 6.184 0 0 1-1.793 4.357A6.098 6.098 0 0 1 928.88 582Z" fill="#1F3969"/></g><path d="M845.212 550.29H678a7.078 7.078 0 0 1-7.075-7.075v-131.14A7.076 7.076 0 0 1 678 405h167.211a7.076 7.076 0 0 1 7.075 7.075v131.141a7.064 7.064 0 0 1-2.072 5.002 7.081 7.081 0 0 1-5.002 2.072Z" fill="#111D2D"/><path d="M852.287 425.574H670.925v-13.499A7.076 7.076 0 0 1 678 405h167.211a7.077 7.077 0 0 1 7.075 7.075l.001 13.499Z" fill="#E7EAEF"/><path d="M688.676 418.825a3.537 3.537 0 1 0 0-7.074 3.537 3.537 0 0 0 0 7.074Z" fill="#E03934"/><path d="M700.956 418.825a3.538 3.538 0 1 0 0-7.076 3.538 3.538 0 0 0 0 7.076Z" fill="#FBDB75"/><path d="M713.237 418.825a3.537 3.537 0 1 0 0-7.074 3.537 3.537 0 0 0 0 7.074Z" fill="#8DC63F"/><path d="M692.214 441.9H709.7m5.306 87.164h38.079" stroke="#9169FF" stroke-width="4" stroke-miterlimit="10" stroke-linecap="round" stroke-linejoin="round"/><path d="M775.116 441.9h11.433" stroke="#fff" stroke-width="4" stroke-miterlimit="10" stroke-linecap="round" stroke-linejoin="round"/><path d="M716.774 441.9h49.858M692.214 529.063h12.279" stroke="#7BFFA0" stroke-width="4" stroke-miterlimit="10" stroke-linecap="round" stroke-linejoin="round"/><path d="M766.633 452.796h7.088" stroke="#fff" stroke-width="4" stroke-miterlimit="10" stroke-linecap="round" stroke-linejoin="round"/><path d="M734.026 452.796h24.079" stroke="#9169FF" stroke-width="4" stroke-miterlimit="10" stroke-linecap="round" stroke-linejoin="round"/><path d="M700.957 452.796h24.536" stroke="#FFC47D" stroke-width="4" stroke-miterlimit="10" stroke-linecap="round" stroke-linejoin="round"/><path d="M738.935 463.691h21.082" stroke="#fff" stroke-width="4" stroke-miterlimit="10" stroke-linecap="round" stroke-linejoin="round"/><path d="M712.35 463.691h19.883" stroke="#FF5757" stroke-width="4" stroke-miterlimit="10" stroke-linecap="round" stroke-linejoin="round"/><path d="M741.747 474.587h4.367" stroke="#fff" stroke-width="4" stroke-miterlimit="10" stroke-linecap="round" stroke-linejoin="round"/><path d="M724.218 474.587h9.808" stroke="#9169FF" stroke-width="4" stroke-miterlimit="10" stroke-linecap="round" stroke-linejoin="round"/><path d="M700.957 474.587h15.818" stroke="#7BFFA0" stroke-width="4" stroke-miterlimit="10" stroke-linecap="round" stroke-linejoin="round"/><path d="M734.918 485.482h28.207" stroke="#FFC47D" stroke-width="4" stroke-miterlimit="10" stroke-linecap="round" stroke-linejoin="round"/><path d="M700.957 485.482h25.317" stroke="#FF5757" stroke-width="4" stroke-miterlimit="10" stroke-linecap="round" stroke-linejoin="round"/><path d="M767.547 496.378h15.337" stroke="#9169FF" stroke-width="4" stroke-miterlimit="10" stroke-linecap="round" stroke-linejoin="round"/><path d="M734.918 496.378h24.541" stroke="#FF5757" stroke-width="4" stroke-miterlimit="10" stroke-linecap="round" stroke-linejoin="round"/><path d="M712.35 496.378h13.924" stroke="#7BFFA0" stroke-width="4" stroke-miterlimit="10" stroke-linecap="round" stroke-linejoin="round"/><path d="M746.066 507.273h13.393" stroke="#fff" stroke-width="4" stroke-miterlimit="10" stroke-linecap="round" stroke-linejoin="round"/><path d="M712.35 507.273h24.536" stroke="#9169FF" stroke-width="4" stroke-miterlimit="10" stroke-linecap="round" stroke-linejoin="round"/><path d="M780.833 518.168h15.292" stroke="#fff" stroke-width="4" stroke-miterlimit="10" stroke-linecap="round" stroke-linejoin="round"/><path d="M734.026 518.168h38.532" stroke="#FFC47D" stroke-width="4" stroke-miterlimit="10" stroke-linecap="round" stroke-linejoin="round"/><path d="M700.957 518.168h24.536" stroke="#fff" stroke-width="4" stroke-miterlimit="10" stroke-linecap="round" stroke-linejoin="round"/><path d="M942.549 587.406h-91.753a6.329 6.329 0 0 1-6.327-6.327v-97.233a6.323 6.323 0 0 1 6.327-6.327h91.753a6.324 6.324 0 0 1 6.327 6.327v97.233a6.326 6.326 0 0 1-6.327 6.327Z" fill="#62ADE8"/><path d="M928.896 507.63h-64.51a4.089 4.089 0 0 1-4.086-4.087v-6.168a4.087 4.087 0 0 1 4.086-4.087h64.51a4.088 4.088 0 0 1 4.087 4.087v6.168a4.09 4.09 0 0 1-4.087 4.087Zm-28.349 23.178h-36.098a4.097 4.097 0 0 1-2.889-1.197 4.077 4.077 0 0 1-1.197-2.89v-6.168a4.09 4.09 0 0 1 4.086-4.087h36.098a4.086 4.086 0 0 1 4.086 4.087v6.168a4.086 4.086 0 0 1-4.086 4.087Zm28.413 0h-13.963a4.09 4.09 0 0 1-4.087-4.087v-6.168a4.088 4.088 0 0 1 4.087-4.087h13.963a4.088 4.088 0 0 1 4.086 4.087v6.168a4.086 4.086 0 0 1-4.086 4.087ZM860.3 554.89h72.683m-72.683 8.534h72.683m-72.683 8.533h44.27" stroke="#fff" stroke-width="2" stroke-miterlimit="10" stroke-linecap="round" stroke-linejoin="round"/><path d="M517 221.642c18.58 0 33.642-15.062 33.642-33.642 0-18.58-15.062-33.643-33.642-33.643-18.58 0-33.643 15.063-33.643 33.643S498.42 221.642 517 221.642Z" fill="#D1DCF8"/><path d="M517 217.902c16.515 0 29.902-13.388 29.902-29.902 0-16.515-13.387-29.902-29.902-29.902-16.514 0-29.902 13.387-29.902 29.902 0 16.514 13.388 29.902 29.902 29.902Z" fill="#F3F6FD"/><path d="M530.08 188.71h-17.09a.687.687 0 1 1 0-1.376h17.09a.687.687 0 0 1 0 1.376Z" fill="#D1DCF8"/><path d="M516.993 192.294a.344.344 0 0 1-.344-.343v-28.02a.345.345 0 0 1 .688 0v28.02c0 .19-.154.343-.344.343Z" fill="#FE4C40"/><path d="M505.915 201.915a.343.343 0 0 1-.266-.562l13.684-16.73a.343.343 0 0 1 .484-.049c.148.12.169.337.048.484l-13.684 16.73a.34.34 0 0 1-.266.127Z" fill="#D1DCF8"/><path d="M516.994 189.184a1.135 1.135 0 1 0 0-2.27 1.135 1.135 0 0 0 0 2.27Z" fill="#fff"/><path d="M546.896 187.999c0 16.522-13.385 29.908-29.894 29.908-11.734 0-21.887-6.755-26.784-16.577 5.489 6.617 13.77 10.84 23.042 10.84 16.509 0 29.908-13.399 29.908-29.907a29.69 29.69 0 0 0-3.109-13.276 29.71 29.71 0 0 1 6.837 19.012Z" fill="#E4ECF9"/><path d="M914.577-.146h-3.16V45.03h3.16V-.146Z" fill="#4A5258"/><path d="M921.74 55.768h-17.486l4.588-10.738h8.311l4.587 10.738Z" fill="#3A4146"/><path d="M957.965 89.044h-89.93l24.602-22.622 11.584-10.657h17.558l36.186 33.28Z" fill="#E4ECF9"/><path d="M925.614 89.045a12.254 12.254 0 0 1-3.25 7.144 12.32 12.32 0 0 1-9.082 3.956c-5.368 0-9.929-3.41-11.645-8.214a11.357 11.357 0 0 1-.665-2.886h24.642Z" fill="#FFCF3D"/><path d="M925.614 89.045a12.254 12.254 0 0 1-3.25 7.144 17.456 17.456 0 0 0-3.188-2.099c-3.835-1.977-8.235-2.704-12.574-2.684-1.655 0-3.35.121-4.965.525a11.357 11.357 0 0 1-.665-2.886h24.642Z" fill="#EDBA3B"/><path d="M957.965 89.045h-1.09c-20.081-10.817-41.837-18.446-64.239-22.623l11.585-10.656h17.558l36.186 33.28Z" fill="#D1DCF8"/></g><defs><filter id="filter0_f_2923_51892" x="608" y="546.334" width="64.265" height="89.287" filterUnits="userSpaceOnUse" color-interpolation-filters="sRGB"><feFlood flood-opacity="0" result="BackgroundImageFix"/><feBlend in="SourceGraphic" in2="BackgroundImageFix" result="shape"/><feGaussianBlur stdDeviation="12" result="effect1_foregroundBlur_2923_51892"/></filter><filter id="filter1_f_2923_51892" x="608" y="587.621" width="80.529" height="76.351" filterUnits="userSpaceOnUse" color-interpolation-filters="sRGB"><feFlood flood-opacity="0" result="BackgroundImageFix"/><feBlend in="SourceGraphic" in2="BackgroundImageFix" result="shape"/><feGaussianBlur stdDeviation="12" result="effect1_foregroundBlur_2923_51892"/></filter><filter id="filter2_i_2923_51892" x="638.191" y="430.375" width="304.688" height="208.406" filterUnits="userSpaceOnUse" color-interpolation-filters="sRGB"><feFlood flood-opacity="0" result="BackgroundImageFix"/><feBlend in="SourceGraphic" in2="BackgroundImageFix" result="shape"/><feColorMatrix in="SourceAlpha" values="0 0 0 0 0 0 0 0 0 0 0 0 0 0 0 0 0 0 127 0" result="hardAlpha"/><feOffset dx="4" dy="5"/><feGaussianBlur stdDeviation="10"/><feComposite in2="hardAlpha" operator="arithmetic" k2="-1" k3="1"/><feColorMatrix values="0 0 0 0 0.717647 0 0 0 0 0.784314 0 0 0 0 0.862745 0 0 0 1 0"/><feBlend in2="shape" result="effect1_innerShadow_2923_51892"/></filter><filter id="filter3_f_2923_51892" x="639" y="439" width="184" height="145" filterUnits="userSpaceOnUse" color-interpolation-filters="sRGB"><feFlood flood-opacity="0" result="BackgroundImageFix"/><feBlend in="SourceGraphic" in2="BackgroundImageFix" result="shape"/><feGaussianBlur stdDeviation="12" result="effect1_foregroundBlur_2923_51892"/></filter><filter id="filter4_f_2923_51892" x="810" y="451" width="149" height="155" filterUnits="userSpaceOnUse" color-interpolation-filters="sRGB"><feFlood flood-opacity="0" result="BackgroundImageFix"/><feBlend in="SourceGraphic" in2="BackgroundImageFix" result="shape"/><feGaussianBlur stdDeviation="12" result="effect1_foregroundBlur_2923_51892"/></filter><linearGradient id="paint0_linear_2923_51892" x1="548.237" y1="631.01" x2="559.329" y2="640.469" gradientUnits="userSpaceOnUse"><stop stop-color="#5A9FD4"/><stop offset="1" stop-color="#306998"/></linearGradient><linearGradient id="paint1_linear_2923_51892" x1="563.502" y1="646.348" x2="559.525" y2="640.77" gradientUnits="userSpaceOnUse"><stop stop-color="#FFD43B"/><stop offset="1" stop-color="#FFE873"/></linearGradient><linearGradient id="paint2_linear_2923_51892" x1="788.535" y1="430.375" x2="788.535" y2="633.782" gradientUnits="userSpaceOnUse"><stop stop-color="#D1E0F2"/><stop offset="1" stop-color="#B3C4D9"/></linearGradient><clipPath id="clip0_2923_51892"><path fill="#fff" d="M0 0h1440v768H0z"/></clipPath><clipPath id="clip1_2923_51892"><path fill="#fff" transform="translate(984 571)" d="M0 0h19v15H0z"/></clipPath><clipPath id="clip2_2923_51892"><path fill="#fff" transform="translate(548.599 630.437)" d="M0 0h20.158v20.158H0z"/></clipPath></defs></svg>